<mxfile host="app.diagrams.net" modified="2021-08-22T05:24:16.891Z" agent="5.0 (Macintosh; Intel Mac OS X 10_15_7) AppleWebKit/537.36 (KHTML, like Gecko) Chrome/92.0.4515.107 Safari/537.36" etag="zzcFu4HNZDwSwrcvu4ef" version="14.9.8" type="github">
  <diagram id="O6iMT5-jI1jPnmfTXNIs" name="Page-1">
    <mxGraphModel dx="2946" dy="1129" grid="1" gridSize="10" guides="1" tooltips="1" connect="1" arrows="1" fold="1" page="1" pageScale="1" pageWidth="850" pageHeight="1100" math="0" shadow="0">
      <root>
        <mxCell id="0" />
        <mxCell id="1" parent="0" />
        <mxCell id="Mx1FiRWQqoHFJlD9jn3o-28" value="" style="rounded=0;whiteSpace=wrap;html=1;fontStyle=1;fontSize=12;" vertex="1" parent="1">
          <mxGeometry x="170" y="120" width="580" height="570" as="geometry" />
        </mxCell>
        <mxCell id="Mx1FiRWQqoHFJlD9jn3o-1" value="" style="rounded=0;whiteSpace=wrap;html=1;fontStyle=1;fontSize=12;" vertex="1" parent="1">
          <mxGeometry x="180" y="250" width="560" height="80" as="geometry" />
        </mxCell>
        <mxCell id="Mx1FiRWQqoHFJlD9jn3o-3" value="" style="rounded=0;whiteSpace=wrap;html=1;fontStyle=1;fontSize=12;" vertex="1" parent="1">
          <mxGeometry x="180" y="340" width="560" height="70" as="geometry" />
        </mxCell>
        <mxCell id="Mx1FiRWQqoHFJlD9jn3o-4" value="科学计算需要的API" style="rounded=0;whiteSpace=wrap;html=1;fontStyle=1;fontSize=12;fillColor=#f8cecc;strokeColor=#b85450;" vertex="1" parent="1">
          <mxGeometry x="189" y="272" width="130" height="50" as="geometry" />
        </mxCell>
        <mxCell id="Mx1FiRWQqoHFJlD9jn3o-5" value="函数式接口" style="rounded=0;whiteSpace=wrap;html=1;fontStyle=1;fontSize=12;fillColor=#fff2cc;strokeColor=#d6b656;" vertex="1" parent="1">
          <mxGeometry x="327" y="272" width="135" height="50" as="geometry" />
        </mxCell>
        <mxCell id="Mx1FiRWQqoHFJlD9jn3o-6" value="Symbolic的公式书写形式" style="rounded=0;whiteSpace=wrap;html=1;fontStyle=1;fontSize=12;fillColor=#fff2cc;strokeColor=#d6b656;" vertex="1" parent="1">
          <mxGeometry x="469" y="273" width="135" height="50" as="geometry" />
        </mxCell>
        <mxCell id="Mx1FiRWQqoHFJlD9jn3o-7" value="Python API" style="text;html=1;strokeColor=none;fillColor=none;align=center;verticalAlign=middle;whiteSpace=wrap;rounded=0;fontStyle=1;fontSize=12;" vertex="1" parent="1">
          <mxGeometry x="180" y="250" width="90" height="20" as="geometry" />
        </mxCell>
        <mxCell id="Mx1FiRWQqoHFJlD9jn3o-9" value="深度学习常用API" style="rounded=0;whiteSpace=wrap;html=1;fontStyle=1;fontSize=12;fillColor=#d5e8d4;strokeColor=#82b366;" vertex="1" parent="1">
          <mxGeometry x="610" y="273" width="120" height="50" as="geometry" />
        </mxCell>
        <mxCell id="Mx1FiRWQqoHFJlD9jn3o-12" value="Symbolic的公式优化" style="rounded=0;whiteSpace=wrap;html=1;fontStyle=1;fontSize=12;fillColor=#dae8fc;strokeColor=#6c8ebf;" vertex="1" parent="1">
          <mxGeometry x="189" y="360" width="170" height="40" as="geometry" />
        </mxCell>
        <mxCell id="Mx1FiRWQqoHFJlD9jn3o-14" value="" style="group;fontStyle=1;fontSize=12;" vertex="1" connectable="0" parent="1">
          <mxGeometry x="180" y="420" width="560" height="80" as="geometry" />
        </mxCell>
        <mxCell id="Mx1FiRWQqoHFJlD9jn3o-2" value="" style="rounded=0;whiteSpace=wrap;html=1;fontStyle=1;fontSize=12;" vertex="1" parent="Mx1FiRWQqoHFJlD9jn3o-14">
          <mxGeometry width="560" height="80" as="geometry" />
        </mxCell>
        <mxCell id="Mx1FiRWQqoHFJlD9jn3o-8" value="执行机制" style="text;html=1;strokeColor=none;fillColor=none;align=center;verticalAlign=middle;whiteSpace=wrap;rounded=0;fontStyle=1;fontSize=12;" vertex="1" parent="Mx1FiRWQqoHFJlD9jn3o-14">
          <mxGeometry width="80" height="20" as="geometry" />
        </mxCell>
        <mxCell id="Mx1FiRWQqoHFJlD9jn3o-10" value="自动微分-反向" style="rounded=0;whiteSpace=wrap;html=1;fontStyle=1;fontSize=12;fillColor=#d5e8d4;strokeColor=#82b366;" vertex="1" parent="Mx1FiRWQqoHFJlD9jn3o-14">
          <mxGeometry x="9" y="20" width="261" height="50" as="geometry" />
        </mxCell>
        <mxCell id="Mx1FiRWQqoHFJlD9jn3o-11" value="自动微分-前向" style="rounded=0;whiteSpace=wrap;html=1;fontStyle=1;fontSize=9;fillColor=#fff2cc;strokeColor=#d6b656;" vertex="1" parent="Mx1FiRWQqoHFJlD9jn3o-14">
          <mxGeometry x="280" y="20" width="270" height="50" as="geometry" />
        </mxCell>
        <mxCell id="Mx1FiRWQqoHFJlD9jn3o-15" value="中间表达的优化" style="text;html=1;strokeColor=none;fillColor=none;align=center;verticalAlign=middle;whiteSpace=wrap;rounded=0;fontStyle=1;fontSize=12;" vertex="1" parent="1">
          <mxGeometry x="180" y="340" width="110" height="20" as="geometry" />
        </mxCell>
        <mxCell id="Mx1FiRWQqoHFJlD9jn3o-16" value="Pass优化" style="rounded=0;whiteSpace=wrap;html=1;fontStyle=1;fontSize=12;fillColor=#d5e8d4;strokeColor=#82b366;" vertex="1" parent="1">
          <mxGeometry x="370" y="360" width="180" height="40" as="geometry" />
        </mxCell>
        <mxCell id="Mx1FiRWQqoHFJlD9jn3o-17" value="编译器级别的元算子优化" style="rounded=0;whiteSpace=wrap;html=1;fontStyle=1;fontSize=12;fillColor=#fff2cc;strokeColor=#d6b656;" vertex="1" parent="1">
          <mxGeometry x="560" y="360" width="170" height="40" as="geometry" />
        </mxCell>
        <mxCell id="Mx1FiRWQqoHFJlD9jn3o-18" value="" style="group;fontStyle=1;fontSize=12;" vertex="1" connectable="0" parent="1">
          <mxGeometry x="180" y="510" width="560" height="80" as="geometry" />
        </mxCell>
        <mxCell id="Mx1FiRWQqoHFJlD9jn3o-19" value="" style="rounded=0;whiteSpace=wrap;html=1;fontStyle=1;fontSize=12;" vertex="1" parent="Mx1FiRWQqoHFJlD9jn3o-18">
          <mxGeometry width="560" height="80" as="geometry" />
        </mxCell>
        <mxCell id="Mx1FiRWQqoHFJlD9jn3o-20" value="底层算子及拓展" style="text;html=1;strokeColor=none;fillColor=none;align=center;verticalAlign=middle;whiteSpace=wrap;rounded=0;fontStyle=1;fontSize=12;" vertex="1" parent="Mx1FiRWQqoHFJlD9jn3o-18">
          <mxGeometry width="100" height="20" as="geometry" />
        </mxCell>
        <mxCell id="Mx1FiRWQqoHFJlD9jn3o-21" value="常用计算算子前向支持" style="rounded=0;whiteSpace=wrap;html=1;fontStyle=1;fontSize=12;fillColor=#d5e8d4;strokeColor=#82b366;" vertex="1" parent="Mx1FiRWQqoHFJlD9jn3o-18">
          <mxGeometry x="9" y="20" width="181" height="50" as="geometry" />
        </mxCell>
        <mxCell id="Mx1FiRWQqoHFJlD9jn3o-22" value="高阶/3阶微分算子支持" style="rounded=0;whiteSpace=wrap;html=1;fontStyle=1;fontSize=12;fillColor=#f8cecc;strokeColor=#b85450;" vertex="1" parent="Mx1FiRWQqoHFJlD9jn3o-18">
          <mxGeometry x="200" y="20" width="170" height="50" as="geometry" />
        </mxCell>
        <mxCell id="Mx1FiRWQqoHFJlD9jn3o-30" value="自定义算子机制" style="rounded=0;whiteSpace=wrap;html=1;fontStyle=1;fontSize=12;fillColor=#d5e8d4;strokeColor=#82b366;" vertex="1" parent="Mx1FiRWQqoHFJlD9jn3o-18">
          <mxGeometry x="380" y="20" width="170" height="50" as="geometry" />
        </mxCell>
        <mxCell id="Mx1FiRWQqoHFJlD9jn3o-23" value="" style="group;fontStyle=1;fontSize=12;" vertex="1" connectable="0" parent="1">
          <mxGeometry x="180" y="600" width="560" height="80" as="geometry" />
        </mxCell>
        <mxCell id="Mx1FiRWQqoHFJlD9jn3o-24" value="" style="rounded=0;whiteSpace=wrap;html=1;fontStyle=1;fontSize=12;" vertex="1" parent="Mx1FiRWQqoHFJlD9jn3o-23">
          <mxGeometry width="560" height="80" as="geometry" />
        </mxCell>
        <mxCell id="Mx1FiRWQqoHFJlD9jn3o-25" value="底层设备" style="text;html=1;strokeColor=none;fillColor=none;align=center;verticalAlign=middle;whiteSpace=wrap;rounded=0;fontStyle=1;fontSize=12;" vertex="1" parent="Mx1FiRWQqoHFJlD9jn3o-23">
          <mxGeometry width="80" height="20" as="geometry" />
        </mxCell>
        <mxCell id="Mx1FiRWQqoHFJlD9jn3o-26" value="飞桨已支持的设备" style="rounded=0;whiteSpace=wrap;html=1;fontStyle=1;fontSize=12;fillColor=#d5e8d4;strokeColor=#82b366;" vertex="1" parent="Mx1FiRWQqoHFJlD9jn3o-23">
          <mxGeometry x="9" y="20" width="461" height="50" as="geometry" />
        </mxCell>
        <mxCell id="Mx1FiRWQqoHFJlD9jn3o-27" value="？" style="rounded=0;whiteSpace=wrap;html=1;fontStyle=1;fontSize=12;fillColor=#dae8fc;strokeColor=#6c8ebf;" vertex="1" parent="Mx1FiRWQqoHFJlD9jn3o-23">
          <mxGeometry x="480" y="20" width="70" height="50" as="geometry" />
        </mxCell>
        <mxCell id="Mx1FiRWQqoHFJlD9jn3o-31" value="" style="rounded=0;whiteSpace=wrap;html=1;fontStyle=1;fontSize=12;" vertex="1" parent="1">
          <mxGeometry x="180" y="160" width="560" height="80" as="geometry" />
        </mxCell>
        <mxCell id="Mx1FiRWQqoHFJlD9jn3o-32" value="Paddle-Science" style="text;html=1;strokeColor=none;fillColor=none;align=center;verticalAlign=middle;whiteSpace=wrap;rounded=0;fontStyle=1;fontSize=12;" vertex="1" parent="1">
          <mxGeometry x="180" y="160" width="110" height="20" as="geometry" />
        </mxCell>
        <mxCell id="Mx1FiRWQqoHFJlD9jn3o-35" value="自研科学计算套件" style="rounded=0;whiteSpace=wrap;html=1;fontStyle=1;fontSize=12;fillColor=#fff2cc;strokeColor=#d6b656;" vertex="1" parent="1">
          <mxGeometry x="189" y="180" width="271" height="50" as="geometry" />
        </mxCell>
        <mxCell id="Mx1FiRWQqoHFJlD9jn3o-36" value="科学计算套件生态（Paddle-SimNet）" style="rounded=0;whiteSpace=wrap;html=1;fontStyle=1;fontSize=12;fillColor=#f8cecc;strokeColor=#b85450;" vertex="1" parent="1">
          <mxGeometry x="470" y="180" width="260" height="50" as="geometry" />
        </mxCell>
        <mxCell id="Mx1FiRWQqoHFJlD9jn3o-37" value="飞桨-科学计算技术支持" style="text;html=1;strokeColor=none;fillColor=none;align=center;verticalAlign=middle;whiteSpace=wrap;rounded=0;fontStyle=1;fontSize=12;" vertex="1" parent="1">
          <mxGeometry x="170" y="120" width="160" height="20" as="geometry" />
        </mxCell>
        <mxCell id="Mx1FiRWQqoHFJlD9jn3o-38" value="短期方案" style="rounded=0;whiteSpace=wrap;html=1;fontSize=9;fillColor=#f8cecc;strokeColor=#b85450;" vertex="1" parent="1">
          <mxGeometry x="790" y="190" width="120" height="30" as="geometry" />
        </mxCell>
        <mxCell id="Mx1FiRWQqoHFJlD9jn3o-39" value="长期方案" style="rounded=0;whiteSpace=wrap;html=1;fontSize=9;fillColor=#fff2cc;strokeColor=#d6b656;" vertex="1" parent="1">
          <mxGeometry x="790" y="230" width="120" height="30" as="geometry" />
        </mxCell>
        <mxCell id="Mx1FiRWQqoHFJlD9jn3o-40" value="已经支持" style="rounded=0;whiteSpace=wrap;html=1;fontSize=9;fillColor=#d5e8d4;strokeColor=#82b366;" vertex="1" parent="1">
          <mxGeometry x="790" y="270" width="120" height="30" as="geometry" />
        </mxCell>
        <mxCell id="Mx1FiRWQqoHFJlD9jn3o-41" value="尚未确定" style="rounded=0;whiteSpace=wrap;html=1;fontSize=9;fillColor=#dae8fc;strokeColor=#6c8ebf;" vertex="1" parent="1">
          <mxGeometry x="790" y="310" width="120" height="30" as="geometry" />
        </mxCell>
      </root>
    </mxGraphModel>
  </diagram>
</mxfile>
